<svg width="28" height="18" viewBox="0 0 28 18" fill="none" xmlns="http://www.w3.org/2000/svg">
<path fill-rule="evenodd" clip-rule="evenodd" d="M0.875032 8.99996C0.875032 8.75132 0.973803 8.51287 1.14962 8.33705C1.32543 8.16124 1.56389 8.06246 1.81253 8.06246H23.9244L18.0238 2.16371C17.9366 2.07655 17.8675 1.97307 17.8203 1.85918C17.7731 1.7453 17.7488 1.62323 17.7488 1.49996C17.7488 1.37669 17.7731 1.25463 17.8203 1.14074C17.8675 1.02686 17.9366 0.923378 18.0238 0.836213C18.1109 0.749048 18.2144 0.679906 18.3283 0.632732C18.4422 0.585559 18.5643 0.561279 18.6875 0.561279C18.8108 0.561279 18.9329 0.585559 19.0468 0.632732C19.1606 0.679906 19.2641 0.749048 19.3513 0.836213L26.8513 8.33621C26.9386 8.4233 27.0079 8.52675 27.0551 8.64065C27.1024 8.75455 27.1267 8.87665 27.1267 8.99996C27.1267 9.12328 27.1024 9.24538 27.0551 9.35928C27.0079 9.47317 26.9386 9.57663 26.8513 9.66371L19.3513 17.1637C19.2641 17.2509 19.1606 17.32 19.0468 17.3672C18.9329 17.4144 18.8108 17.4386 18.6875 17.4386C18.5643 17.4386 18.4422 17.4144 18.3283 17.3672C18.2144 17.32 18.1109 17.2509 18.0238 17.1637C17.9366 17.0765 17.8675 16.9731 17.8203 16.8592C17.7731 16.7453 17.7488 16.6232 17.7488 16.5C17.7488 16.3767 17.7731 16.2546 17.8203 16.1407C17.8675 16.0269 17.9366 15.9234 18.0238 15.8362L23.9244 9.93746H1.81253C1.56389 9.93746 1.32543 9.83869 1.14962 9.66288C0.973803 9.48706 0.875032 9.2486 0.875032 8.99996Z" fill="black" fill-opacity="0.7"/>
</svg>
