<svg width="28" height="18" viewBox="0 0 28 18" fill="none" xmlns="http://www.w3.org/2000/svg">
<path fill-rule="evenodd" clip-rule="evenodd" d="M27.125 8.99996C27.125 8.75132 27.0263 8.51287 26.8504 8.33705C26.6746 8.16124 26.4362 8.06246 26.1875 8.06246H4.07565L9.97628 2.16371C10.0634 2.07655 10.1326 1.97307 10.1798 1.85918C10.2269 1.7453 10.2512 1.62323 10.2512 1.49996C10.2512 1.37669 10.2269 1.25463 10.1798 1.14074C10.1326 1.02686 10.0634 0.923378 9.97628 0.836213C9.88911 0.749048 9.78563 0.679906 9.67175 0.632732C9.55786 0.585559 9.4358 0.561279 9.31253 0.561279C9.18926 0.561279 9.06719 0.585559 8.95331 0.632732C8.83942 0.679906 8.73594 0.749048 8.64878 0.836213L1.14878 8.33621C1.06147 8.4233 0.992204 8.52675 0.944942 8.64065C0.89768 8.75455 0.873352 8.87665 0.873352 8.99996C0.873352 9.12328 0.89768 9.24538 0.944942 9.35928C0.992204 9.47317 1.06147 9.57663 1.14878 9.66371L8.64878 17.1637C8.73594 17.2509 8.83942 17.32 8.95331 17.3672C9.06719 17.4144 9.18926 17.4386 9.31253 17.4386C9.4358 17.4386 9.55786 17.4144 9.67175 17.3672C9.78563 17.32 9.88911 17.2509 9.97628 17.1637C10.0634 17.0765 10.1326 16.9731 10.1798 16.8592C10.2269 16.7453 10.2512 16.6232 10.2512 16.5C10.2512 16.3767 10.2269 16.2546 10.1798 16.1407C10.1326 16.0269 10.0634 15.9234 9.97628 15.8362L4.07565 9.93746H26.1875C26.4362 9.93746 26.6746 9.83869 26.8504 9.66288C27.0263 9.48706 27.125 9.2486 27.125 8.99996Z" fill="black" fill-opacity="0.7"/>
</svg>
