<svg width="276" height="247" viewBox="0 0 276 247" fill="none" xmlns="http://www.w3.org/2000/svg">
<g filter="url(#filter0_f_89_198)">
<path d="M183 18.9999C159 6.19991 89.0002 13.6666 57.0002 18.9999C13.0002 36.9998 3.0002 183 19.0002 209C35.0002 235 123 243 193 227C263 211 277 173 255 159C233 145 213 34.9999 183 18.9999Z" stroke="white" stroke-width="2"/>
</g>
<path d="M183.167 19.0675C159.167 6.26754 89.1667 13.7342 57.1667 19.0675C13.1667 37.0675 3.16671 183.068 19.1667 209.068C35.1667 235.068 123.167 243.068 193.167 227.068C263.167 211.068 277.167 173.068 255.167 159.068C233.167 145.068 213.167 35.0675 183.167 19.0675Z" stroke="#52BB00" stroke-width="2"/>
<defs>
<filter id="filter0_f_89_198" x="0.833496" y="0.932373" width="274.742" height="245.305" filterUnits="userSpaceOnUse" color-interpolation-filters="sRGB">
<feFlood flood-opacity="0" result="BackgroundImageFix"/>
<feBlend mode="normal" in="SourceGraphic" in2="BackgroundImageFix" result="shape"/>
<feGaussianBlur stdDeviation="5" result="effect1_foregroundBlur_89_198"/>
</filter>
</defs>
</svg>
